# xmcd
#
# Track frame offsets: 
#        150
#        450
#        20849
#        42224
#        62420
#        81756
#        99373
#        119354
#        145202
#        158680
#        178947
#        200661
#        218581
#        237273
#
# Disc length: 3399 seconds
#
# Revision: 0
# Processed by: cddbd v1.5.2PL0 Copyright (c) Steve Scherf et al.
# Submitted via: ExactAudioCopy v1.3
#
DISCID=b50d450e
DTITLE=Johnny Drummer - Unleaded Blues
DYEAR=2001
DGENRE=Blues
TTITLE0=I'm Gonna Sell My Cadillac, Buy Myself A Mule
TTITLE1=Born In The Delta
TTITLE2=I'm Missing You
TTITLE3=Stop Cheating
TTITLE4=How Many Times
TTITLE5=Put Your Suitcase Down
TTITLE6=Anything But Without You
TTITLE7=I Feel So Good
TTITLE8=You Got Trouble
TTITLE9=Serious
TTITLE10=Unleaded Blues
TTITLE11=Fall Out Of Love
TTITLE12=Take Care Of Your Homework
TTITLE13=Somebody Please Give Me A Job
EXTD=
EXTT0=
EXTT1=
EXTT2=
EXTT3=
EXTT4=
EXTT5=
EXTT6=
EXTT7=
EXTT8=
EXTT9=
EXTT10=
EXTT11=
EXTT12=
EXTT13=
PLAYORDER=
